<svg xmlns="http://www.w3.org/2000/svg" id="Layer_2" data-name="Layer 2" viewBox="0 0 810.26 829.08">
  <defs fill="#8cbe71">
    <style>
      .cls-1 {
        fill: #1c4c1b;
      }
    </style>
  </defs>
  <g id="Layer_1-2" data-name="Layer 1">
    <path class="cls-1" d="M178.17,2.5C61.12,7.68-.13,78.45,1.42,194.74c4.37,149.5-6.29,302.7,1.55,451.58,2.32,44.09,6.04,75.74,33.27,112.23,46.25,61.99,110.08,66.63,181.92,68.58,136.11-5.72,278.86,8.06,414.06-1.59,116.1-8.29,171.63-69.59,176.33-185.17-4.27-148.67,5.46-300.31,0-448.63-3.73-101.4-45.52-173.91-152.34-188.16-157.84,2.01-320.56-8.05-478.04-1.07Z" fill="#8cbe71"/>
    <path d="M178.17,2.5c157.48-6.97,320.2,3.09,478.04,1.07,106.82,14.25,148.61,86.76,152.34,188.16,5.45,148.33-4.28,299.96,0,448.63-4.7,115.59-60.23,176.89-176.33,185.17-135.2,9.65-277.95-4.14-414.06,1.59-71.85-1.94-135.68-6.58-181.92-68.58-27.22-36.49-30.95-68.14-33.27-112.23-7.83-148.88,2.83-302.08-1.55-451.58C-.13,78.45,61.12,7.68,178.17,2.5ZM284.98,251.81c-1.11,8.24.81,18.49,0,27l3.05,1.6c30.15-13.17,60.11-27.74,81.72-53.33,5.69-6.74,9.62-14.28,14.47-21.53,1.02-1.53,3.03-4.69,2.74-.27-11.26,30.65-31.44,54.25-58.6,71.91-25.69,16.7-56.52,26.19-80.08,45.92-15.03,12.59-30.04,30.99-36.81,49.44-3.1-.02-1.11-5.86-.8-7.56,4.26-24.12,19.25-53.27,33.49-73.01,4.18-5.79,17.11-18.66,19.04-22.96,1.77-3.94,2.98-17.85,3.74-23.29.26-1.89-.12-3.05-2.18-2.16-1.66.72-22.78,22.29-25.54,25.47-58.38,67.04-70.31,173.08-25.48,250.49l9.64-20.22c-36.82-68.49-5.32-152.65,62.63-186.48,34.67-17.26,71.76-13.26,104-41.5,40.24-35.25,40.82-101.91,7.5-141.77-11.71,53.37-84.77,58.48-106.33,104.43-1.71,3.64-5.71,14.28-6.19,17.81ZM425.99,132.56c1.89,6.43,5.28,12.37,7.54,18.69,1.56,4.37,2.08,13.71,5.48,15.52,3.93,2.09,23.88,4.74,30.8,6.7,23.65,6.73,45.44,16.44,66.44,29.04l29.21-18.22c-40.29-29.98-89.44-47.01-139.46-51.74ZM373.48,134.06c-167.37,18.59-277.14,185.24-237.76,348.01,13.41,55.42,46.93,109.82,89.25,147.75,5.91,5.3,32.71,27.49,38.3,29.21,1.92.59,2.95-.33,2.2-2.2-1.51-3.77-7.07-9.86-9.27-14.74-13.68-30.33-10.42-61.93,6.59-89.99,40.72-67.2,121.7-66.08,186.24-95.76,76.13-35.01,127.1-104.81,162.99-178.29l34.46,22.5-8.99-133.49-113.99,66.01,37.46,17.22c-28.83,56.57-64.75,112.44-121.96,143.52-46.14,25.06-99.06,28.04-143.97,57.03s-72.25,77.35-72.28,131.71c-68.42-81.44-84.05-194.38-32.52-289,33.58-61.65,67.49-80.04,125.77-112.73,20.26-11.37,48.02-24.64,57.48-46.75ZM438.48,371.06c8.51-3.98,17.51-10.54,24.7-16.55,9.61-8.02,17.62-17.23,26.3-26.2v-87l-2.25-2.25h-47.25c.49,1.47-1.5,3.25-1.5,3.75v128.25ZM363.48,401.06c17.15-3.49,35.41-8.89,51-17.25v-70.5l-2.25-2.25h-46.5l-2.25,2.25v87.75ZM667.47,336.55l-37.48-22.49c24.5,58,26.14,124.55,6.41,184.18-5.29,15.98-7.54,21.09-11.31,38.19-11.73,53.19-38.24,76.47-88.07,93.43-31.1,10.59-59.84,25.86-93.02,31.48-37.16,6.3-73.28,3.57-109.18-7.89-24.36-7.77-45.55-20.4-66.34-34.9,17.62,85.49,139.03,87.73,205.81,70.07,156.06-41.25,241.32-208.57,194.55-361.7-.52-1.71-.55-5.57-2.85-5.37l1.48,14.99ZM616.47,470.05c11.89-44.05,9.15-94.2-8.26-136.5-.59-1.43-.16-3.44-2.21-2.99l-10.16,18.44c6.18,23.14,11.29,49.73,10.12,73.79-.34,6.95-3.53,17.45-3.09,23.99.39,5.88,9.78,17.99,13.59,23.27ZM339.48,410.06v-51.75l-2.25-2.25h-45c-2.06,0-3.75,1.69-3.75,3.75v71.25l51-21ZM423.33,486.9c-18.26,50.81,11.97,109.79,64.16,123.39,102.09,26.6,164.14-103.55,82.36-167.86-6.63-5.21-33.17-19.99-40.33-16.65-2.67,1.24-12.93,11.03-16.13,13.84-1.02.9-2.88-.08-1.91,3.42,63.9-.99,100.27,74.37,59.26,124.52-37.74,46.16-112,29.61-129.85-26.19-7.08-22.14-2.16-43.56,7.56-63.83l-25.14,9.34ZM509.72,456.96c-52.79,2.35-77.22,69.11-39.55,106.17,31.72,31.2,85.22,18.23,100.1-23.04,14.79-41-17.16-85.06-60.55-83.13ZM299.23,540.56c8.43-.39,17.05,0,25.5,0,4.87,0,22,6.33,27.26,8.74,18.16,8.35,33.05,22.8,43.99,39.24l-36.48-22.76c-20.17-8.7-57.24-13.95-77.07-3.03-5.3,2.92-14.32,17.18-11.08,22.08,3.81,5.77,22.13,18.2,28.76,22.35,47.34,29.64,118.27,41.47,170.87,19.6,1.43-.59,3.44-.15,2.99-2.21-25.23-8.47-43.61-26.09-57.61-48.15-13.23-20.83-19.75-45.13-44.84-55.66-28.41-11.92-53.85-1.45-74.53,19.06-.37,4.58,1.55.76,2.24.73Z" fill="#8cbe71"/>
    <path class="cls-1" d="M373.48,134.06c-9.46,22.11-37.22,35.38-57.48,46.75-58.28,32.7-92.19,51.09-125.77,112.73-51.53,94.62-35.9,207.56,32.52,289,.03-54.36,26.95-102.46,72.28-131.71s97.83-31.97,143.97-57.03c57.21-31.07,93.13-86.95,121.96-143.52l-37.46-17.22,113.99-66.01,8.99,133.49-34.46-22.5c-35.88,73.48-86.86,143.28-162.99,178.29-64.54,29.68-145.53,28.55-186.24,95.76-17,28.07-20.26,59.66-6.59,89.99,2.2,4.88,7.76,10.97,9.27,14.74.75,1.87-.28,2.8-2.2,2.2-5.59-1.72-32.39-23.91-38.3-29.21-42.31-37.93-75.84-92.34-89.25-147.75-39.38-162.77,70.39-329.42,237.76-348.01Z" fill="#8cbe71"/>
    <path class="cls-1" d="M284.98,251.81c.48-3.53,4.48-14.17,6.19-17.81,21.56-45.96,94.62-51.06,106.33-104.43,33.33,39.85,32.74,106.52-7.5,141.77-32.24,28.24-69.33,24.25-104,41.5-67.95,33.83-99.45,117.99-62.63,186.48l-9.64,20.22c-44.83-77.41-32.9-183.45,25.48-250.49,2.77-3.18,23.89-24.75,25.54-25.47,2.06-.89,2.44.27,2.18,2.16-.76,5.43-1.97,19.35-3.74,23.29-1.93,4.3-14.86,17.17-19.04,22.96-14.24,19.74-29.23,48.89-33.49,73.01-.3,1.71-2.3,7.54.8,7.56,6.77-18.45,21.78-36.85,36.81-49.44,23.56-19.73,54.39-29.22,80.08-45.92,27.16-17.66,47.34-41.26,58.6-71.91.29-4.41-1.71-1.26-2.74.27-4.84,7.26-8.77,14.79-14.47,21.53-21.61,25.59-51.57,40.16-81.72,53.33l-3.05-1.6c.81-8.51-1.11-18.76,0-27Z" fill="#8cbe71"/>
    <path class="cls-1" d="M667.47,336.55l-1.48-14.99c2.31-.2,2.33,3.65,2.85,5.37,46.78,153.13-38.49,320.45-194.55,361.7-66.78,17.65-188.19,15.42-205.81-70.07,20.79,14.5,41.98,27.12,66.34,34.9,35.9,11.46,72.02,14.19,109.18,7.89,33.18-5.62,61.92-20.89,93.02-31.48,49.82-16.97,76.34-40.25,88.07-93.43,3.77-17.1,6.02-22.21,11.31-38.19,19.73-59.63,18.09-126.18-6.41-184.18l37.48,22.49Z" fill="#8cbe71"/>
    <path class="cls-1" d="M299.23,540.56c-.69.03-2.6,3.85-2.24-.73,20.67-20.51,46.12-30.98,74.53-19.06,25.09,10.53,31.61,34.83,44.84,55.66,14.01,22.05,32.39,39.67,57.61,48.15.45,2.06-1.56,1.61-2.99,2.21-52.6,21.87-123.53,10.04-170.87-19.6-6.63-4.15-24.96-16.58-28.76-22.35-3.23-4.9,5.78-19.16,11.08-22.08,19.84-10.92,56.9-5.67,77.07,3.03l36.48,22.76c-10.94-16.44-25.83-30.89-43.99-39.24-5.25-2.42-22.39-8.74-27.26-8.74-8.45,0-17.07-.39-25.5,0Z" fill="#8cbe71"/>
    <path class="cls-1" d="M509.72,456.96c43.39-1.94,75.33,42.13,60.55,83.13-14.88,41.27-68.39,54.24-100.1,23.04-37.67-37.05-13.23-103.81,39.55-106.17ZM519.34,473.06h-12.01c2.54,14.12-4.69,10.09-12.7,16.55-6.96,5.61-8.47,12.59-6.47,21.39,3.4,14.98,34.77,14.26,37.01,23.12,3.24,12.87-29.08,7.94-34.3.44l-5.37,12.04c5.95,5.81,13.97,7.21,21.63,9.16l.19,10.31h12.01s.2-10.3.2-10.3c14.77-2.58,25.3-15.38,18.55-30.21-6.58-14.46-32.76-11.45-35.03-20.55.56-11.38,11.41-9.85,19.62-7.51,9.97,2.84,9.95,8.78,14.58-6.96l-17.76-7.11-.15-10.36Z" fill="#8cbe71"/>
    <path class="cls-1" d="M423.33,486.9l25.14-9.34c-9.72,20.27-14.65,41.69-7.56,63.83,17.85,55.79,92.1,72.35,129.85,26.19,41.01-50.15,4.64-125.52-59.26-124.52-.97-3.51.89-2.53,1.91-3.42,3.19-2.81,13.46-12.6,16.13-13.84,7.16-3.33,33.7,11.44,40.33,16.65,81.78,64.31,19.72,194.46-82.36,167.86-52.2-13.6-82.42-72.58-64.16-123.39Z" fill="#8cbe71"/>
    <path class="cls-1" d="M438.48,371.06v-128.25c0-.5,1.99-2.28,1.5-3.75h47.25l2.25,2.25v87c-8.68,8.98-16.68,18.18-26.3,26.2-7.19,6-16.19,12.56-24.7,16.55Z" fill="#8cbe71"/>
    <path class="cls-1" d="M363.48,401.06v-87.75l2.25-2.25h46.5l2.25,2.25v70.5c-15.59,8.36-33.85,13.76-51,17.25Z" fill="#8cbe71"/>
    <path class="cls-1" d="M425.99,132.56c50.02,4.74,99.18,21.76,139.46,51.74l-29.21,18.22c-21-12.61-42.79-22.32-66.44-29.04-6.92-1.97-26.87-4.61-30.8-6.7-3.39-1.81-3.92-11.16-5.48-15.52-2.26-6.32-5.66-12.26-7.54-18.69Z" fill="#8cbe71"/>
    <path class="cls-1" d="M339.48,410.06l-51,21v-71.25c0-2.06,1.69-3.75,3.75-3.75h45l2.25,2.25v51.75Z" fill="#8cbe71"/>
    <path class="cls-1" d="M616.47,470.05c-3.8-5.28-13.19-17.39-13.59-23.27-.44-6.54,2.75-17.04,3.09-23.99,1.17-24.06-3.94-50.65-10.12-73.79l10.16-18.44c2.05-.45,1.62,1.56,2.21,2.99,17.41,42.3,20.15,92.44,8.26,136.5Z" fill="#8cbe71"/>
    <path d="M519.48,473.06l.15,10.36,17.76,7.11c-4.63,15.74-4.61,9.8-14.58,6.96-8.21-2.34-19.05-3.87-19.62,7.51,2.27,9.11,28.45,6.09,35.03,20.55,6.75,14.83-3.78,27.63-18.55,30.21l-.2,10.3h-12.01s-.19-10.31-.19-10.31c-7.67-1.94-15.68-3.34-21.63-9.16l5.37-12.04c5.22,7.5,37.54,12.43,34.3-.44-2.23-8.87-33.61-8.14-37.01-23.12-2-8.8-.49-15.78,6.47-21.39,8.01-6.46,15.24-2.43,12.7-16.55h12.01Z" fill="#8cbe71"/>
  </g>
</svg>